<svg xmlns="http://www.w3.org/2000/svg" version="1.0" width="300.000000pt" height="292.000000pt" viewBox="0 0 300.000000 292.000000" preserveAspectRatio="xMidYMid meet">
<metadata fill="#ffffff">
Created by potrace 1.10, written by Peter Selinger 2001-2011
</metadata>
<g transform="translate(0.000000,292.000000) scale(0.100000,-0.100000)" fill="#ffffff" stroke="none">
<path d="M1336 2779 c-441 -61 -824 -347 -1008 -751 l-17 -38 53 0 c53 0 53 0 72 43 63 141 249 356 390 449 215 143 428 208 679 208 258 0 472 -66 689 -213 135 -91 295 -273 366 -416 l35 -70 53 0 c28 -1 52 1 52 4 0 3 -14 34 -31 68 -185 367 -513 619 -914 702 -96 20 -323 28 -419 14z m114 -39 c0 -3 -10 -7 -22 -7 -73 -6 -242 -37 -293 -55 -99 -34 -221 -94 -313 -154 -121 -79 -288 -248 -357 -361 -58 -96 -77 -124 -82 -120 -6 7 57 116 98 172 16 22 37 51 46 65 30 44 166 174 245 233 79 59 254 151 269 141 5 -3 9 -1 9 4 0 11 200 69 270 78 25 3 46 7 47 8 6 5 83 2 83 -4z m160 0 c0 -6 -28 -9 -65 -7 -84 3 -84 15 0 16 36 0 65 -4 65 -9z m175 -22 c22 -5 47 -13 55 -16 8 -2 22 -6 30 -8 37 -7 133 -45 210 -84 211 -106 405 -293 519 -502 17 -31 31 -59 31 -63 0 -18 -30 20 -55 68 -71 140 -242 321 -400 422 -70 44 -200 112 -222 117 -5 0 -37 11 -72 24 -35 13 -98 28 -140 35 -42 6 -87 15 -101 20 -35 12 94 1 145 -13z" fill="#ffffff"/>
<path d="M1414 2609 c-363 -26 -700 -243 -888 -571 -26 -46 -26 -48 -7 -48 14 0 27 13 40 38 34 66 135 195 204 259 205 191 464 293 742 293 227 0 454 -72 630 -198 115 -83 252 -235 315 -349 15 -27 31 -43 42 -43 18 0 18 2 2 33 -40 77 -124 188 -198 262 -235 235 -543 348 -882 324z" fill="#ffffff"/>
<path d="M1251 2327 c-46 -14 -98 -68 -112 -115 -9 -33 -17 -40 -60 -55 -75 -27 -109 -97 -84 -172 15 -41 42 -65 95 -81 l35 -11 0 -72 c0 -68 1 -72 20 -66 98 32 125 36 205 31 47 -2 98 -9 114 -16 41 -15 44 -5 5 19 -64 39 -178 49 -276 25 -20 -5 -23 -2 -23 24 0 16 -3 43 -6 60 -5 27 -12 32 -47 38 -50 8 -97 51 -97 89 0 38 24 79 55 93 41 19 51 15 63 -27 12 -37 42 -76 42 -53 0 6 -4 13 -9 17 -20 12 -23 90 -6 130 21 52 42 74 90 96 88 41 192 9 233 -71 12 -24 22 -56 22 -70 0 -24 3 -26 48 -27 92 -1 140 -48 128 -122 -7 -47 -34 -71 -86 -78 -40 -6 -42 -5 -31 15 14 26 14 72 1 72 -5 0 -10 -7 -10 -15 0 -31 -31 -75 -68 -95 l-37 -21 38 5 37 5 0 -49 c0 -27 5 -52 10 -55 6 -4 10 11 10 37 0 56 7 65 52 66 53 2 93 25 112 66 44 93 -3 183 -109 207 -49 11 -53 14 -64 51 -15 50 -79 114 -128 127 -47 13 -117 12 -162 -2z" fill="#ffffff"/>
<path d="M792 1640 c-71 -8 -102 -29 -102 -70 0 -53 59 -66 68 -15 3 14 -1 16 -22 11 -21 -5 -26 -3 -26 13 0 22 27 41 59 41 20 0 21 -5 21 -136 l0 -135 28 3 27 3 5 134 c5 142 14 165 45 117 20 -30 12 -81 -15 -98 -17 -11 -16 -17 22 -92 60 -122 89 -143 153 -116 19 8 19 9 -2 9 -23 1 -48 30 -83 101 -12 25 -31 54 -42 66 -19 21 -19 21 7 38 47 31 22 126 -34 126 -11 0 -25 2 -33 4 -7 2 -41 0 -76 -4z" fill="#ffffff"/>
<path d="M430 1611 c-34 -33 -37 -52 -14 -75 19 -20 38 -20 54 -1 16 19 3 37 -21 30 -14 -5 -19 -2 -19 13 0 22 15 36 48 46 l22 7 0 -146 c0 -82 -5 -155 -10 -166 -13 -24 -58 -25 -76 -1 -12 16 -13 16 -20 -2 -14 -37 52 -48 113 -19 54 25 64 61 61 211 l-3 127 -53 3 c-47 3 -56 0 -82 -27z" fill="#ffffff"/>
<path d="M1397 1585 c-10 -14 -24 -25 -32 -25 -8 0 -15 -4 -15 -10 0 -5 4 -10 10 -10 5 0 11 -39 12 -86 2 -66 7 -89 19 -97 20 -12 65 -2 72 17 4 10 0 12 -14 9 -18 -5 -19 1 -19 75 0 81 0 81 28 84 18 2 27 9 27 21 0 9 -4 16 -10 15 -5 -1 -9 -8 -7 -15 2 -7 -6 -13 -18 -13 -16 0 -20 6 -20 30 0 36 -9 38 -33 5z" fill="#ffffff"/>
<path d="M2537 1590 c-3 -11 -18 -25 -34 -31 -15 -6 -22 -13 -15 -16 8 -3 12 -29 12 -79 0 -42 5 -84 10 -95 18 -32 80 -20 94 18 6 14 5 16 -5 6 -30 -30 -39 -15 -39 67 l0 80 30 0 c23 0 30 5 30 19 0 11 -4 23 -10 26 -5 3 -10 -3 -10 -14 0 -14 -6 -21 -20 -21 -16 0 -20 7 -20 30 0 34 -15 40 -23 10z" fill="#ffffff"/>
<path d="M1084 1550 c-54 -22 -84 -118 -51 -161 31 -41 90 -50 128 -20 24 19 25 19 48 0 30 -25 76 -24 101 1 30 30 25 54 -20 100 -42 44 -46 62 -16 68 12 3 16 -2 14 -14 -2 -11 4 -20 15 -22 12 -2 17 3 17 18 0 41 -89 49 -110 10 -15 -28 -13 -35 25 -80 19 -23 35 -48 35 -56 0 -23 -30 -28 -59 -11 -18 10 -32 13 -41 7 -24 -15 -56 -11 -73 8 -26 29 -20 45 28 74 52 32 60 63 19 78 -29 12 -32 12 -60 0z m46 -45 c0 -11 -41 -45 -55 -45 -8 0 6 53 18 68 11 14 37 -1 37 -23z" fill="#ffffff"/>
<path d="M1530 1548 c-28 -15 -38 -47 -19 -59 20 -12 42 10 28 27 -13 16 11 30 37 20 29 -11 12 -50 -31 -70 -48 -22 -56 -32 -53 -70 4 -40 29 -54 70 -38 21 8 36 8 42 2 15 -15 42 -12 57 7 10 11 10 14 2 9 -10 -5 -13 10 -13 67 0 59 -4 77 -18 90 -26 23 -72 30 -102 15z m58 -125 c-2 -30 -7 -38 -23 -38 -24 0 -33 38 -15 61 24 28 41 17 38 -23z" fill="#ffffff"/>
<path d="M1703 1548 c-13 -6 -23 -15 -23 -20 0 -5 5 -6 10 -3 6 4 10 -20 10 -65 0 -39 5 -80 10 -91 13 -23 47 -25 78 -3 20 14 23 14 28 0 7 -18 42 -21 64 -5 11 8 12 12 3 16 -9 3 -13 31 -13 88 0 92 -8 103 -58 84 -15 -7 -22 -13 -14 -16 18 -7 16 -127 -3 -143 -26 -21 -35 0 -35 80 0 62 -3 79 -16 84 -9 3 -16 6 -17 5 -1 0 -12 -5 -24 -11z" fill="#ffffff"/>
<path d="M1920 1548 c-21 -9 -22 -12 -7 -15 15 -4 17 -17 17 -94 l0 -90 28 3 c27 3 27 4 26 73 -1 77 12 99 54 90 20 -5 23 -2 20 16 -4 31 -23 34 -47 10 -25 -25 -31 -26 -31 -7 0 11 -24 29 -33 25 -1 0 -13 -5 -27 -11z" fill="#ffffff"/>
<path d="M2114 1551 c-29 -13 -38 -41 -19 -60 21 -21 45 0 25 23 -10 13 -9 17 4 22 51 20 62 -41 11 -65 -46 -21 -65 -42 -65 -71 0 -48 43 -66 87 -35 19 13 22 13 27 0 6 -17 34 -19 56 -4 11 8 12 12 3 16 -9 3 -13 28 -13 72 0 53 -4 72 -18 84 -23 21 -70 29 -98 18z m54 -128 c-3 -43 -32 -58 -43 -24 -8 25 10 61 31 61 11 0 14 -9 12 -37z" fill="#ffffff"/>
<path d="M2280 1548 c-21 -9 -22 -12 -7 -15 15 -4 17 -17 17 -94 0 -88 0 -89 25 -89 24 0 25 2 27 78 2 100 0 115 -15 124 -15 9 -16 9 -47 -4z" fill="#ffffff"/>
<path d="M2369 1540 l-24 -19 22 -1 c28 0 37 -31 31 -105 -3 -34 -12 -62 -23 -75 -16 -17 -16 -20 -2 -20 28 0 68 44 77 85 14 56 2 122 -23 140 -27 19 -30 19 -58 -5z" fill="#ffffff"/>
<path d="M2676 1288 c-2 -7 -9 -39 -16 -71 -16 -80 -60 -134 -140 -175 -79 -39 -136 -51 -310 -62 -170 -10 -419 2 -810 40 -558 54 -817 60 -1050 24 -144 -22 -340 -94 -340 -125 0 -14 17 -11 60 11 59 30 209 68 323 81 129 15 584 6 792 -15 547 -57 588 -59 900 -60 272 -1 318 1 374 17 127 36 213 100 250 187 21 50 30 127 17 149 -10 15 -46 14 -50 -1z" fill="#ffffff"/>
<path d="M2144 1240 c-12 -5 -28 -17 -35 -27 -8 -10 -49 -35 -92 -56 -76 -38 -115 -75 -102 -97 5 -8 16 -3 34 14 14 13 53 41 86 61 52 31 65 35 101 29 29 -4 51 -1 73 10 70 37 10 97 -65 66z m62 -45 c-11 -8 -34 -15 -50 -14 l-31 1 33 8 c18 4 36 10 39 14 4 3 11 6 17 6 6 0 2 -7 -8 -15z" fill="#ffffff"/>
<path d="M2270 1220 c0 -11 7 -20 15 -20 8 0 15 9 15 20 0 11 -7 20 -15 20 -8 0 -15 -9 -15 -20z" fill="#ffffff"/>
<path d="M2774 1183 c-22 -105 -82 -188 -160 -220 -49 -20 -60 -36 -16 -24 112 33 222 152 222 241 0 41 -37 43 -46 3z" fill="#ffffff"/>
<path d="M2360 1191 c-14 -4 -44 -18 -67 -29 -23 -12 -55 -22 -70 -22 -28 0 -110 -47 -100 -57 3 -2 17 3 31 13 15 9 29 14 33 11 3 -3 -11 -14 -31 -23 -42 -21 -45 -31 -12 -40 27 -6 65 14 107 57 25 26 96 53 172 66 21 3 36 11 34 17 -4 13 -63 18 -97 7z" fill="#ffffff"/>
<path d="M340 1125 c-66 -13 -211 -59 -239 -75 -28 -16 8 -12 78 10 81 26 215 47 353 55 60 4 106 11 102 16 -8 13 -219 9 -294 -6z" fill="#ffffff"/>
<path d="M371 873 c78 -130 125 -190 224 -289 62 -62 145 -133 190 -163 637 -418 1465 -220 1849 442 l28 47 -54 0 -53 0 -52 -78 c-179 -272 -471 -462 -793 -518 -142 -24 -371 -15 -505 20 -115 31 -272 103 -378 173 -98 65 -240 210 -311 316 l-58 87 -55 0 -55 0 23 -37z m129 -95 c57 -88 217 -244 324 -313 72 -47 198 -113 249 -129 9 -3 17 -10 17 -15 0 -16 -161 53 -230 98 -147 99 -157 107 -250 201 -80 81 -190 230 -168 229 7 0 33 -32 58 -71z m2054 25 c-32 -50 -153 -189 -211 -242 -63 -58 -195 -147 -282 -191 -75 -39 -253 -97 -316 -105 -58 -7 -43 8 20 20 22 5 45 9 52 11 15 3 83 24 103 31 8 3 21 7 28 9 40 8 287 150 331 190 85 78 191 192 234 252 28 40 53 68 55 63 2 -5 -5 -22 -14 -38z m-1311 -518 c69 -16 88 -28 31 -20 -51 8 -114 25 -114 30 0 8 21 5 83 -10z m442 -24 c-3 -6 -13 -10 -23 -10 -157 -6 -292 -6 -292 1 0 4 37 7 83 5 45 -2 109 0 142 4 93 10 97 10 90 0z" fill="#ffffff"/>
<path d="M592 849 c166 -238 447 -412 740 -459 122 -20 350 -8 465 24 233 64 443 204 587 390 80 104 81 106 58 106 -11 0 -32 -19 -52 -47 -50 -71 -166 -188 -240 -243 -327 -241 -771 -278 -1133 -94 -150 76 -271 177 -373 310 -35 46 -64 74 -76 74 -16 0 -12 -10 24 -61z" fill="#ffffff"/>
<path d="M1483 863 c-16 -34 -23 -38 -60 -41 -24 -2 -43 -5 -43 -8 0 -3 14 -17 31 -31 29 -25 31 -30 25 -74 l-7 -48 40 22 39 22 43 -24 c33 -19 41 -21 36 -8 -3 8 -9 31 -12 50 -6 30 -3 37 24 56 41 30 39 41 -9 41 -36 0 -41 3 -60 40 -11 22 -22 40 -24 40 -3 0 -13 -17 -23 -37z m46 -62 c23 -15 5 -61 -24 -61 -28 0 -43 33 -25 55 14 17 29 19 49 6z" fill="#ffffff"/>
<path d="M1226 767 c-5 -29 -12 -35 -44 -43 l-37 -9 33 -20 c30 -18 33 -24 27 -52 -7 -38 -3 -40 34 -14 23 17 29 18 51 5 37 -20 42 -17 26 19 -12 30 -12 36 5 58 25 33 24 36 -15 31 -27 -3 -35 0 -40 16 -4 11 -13 25 -20 31 -11 9 -15 5 -20 -22z" fill="#ffffff"/>
<path d="M1756 771 c-16 -30 -21 -33 -52 -28 -40 7 -42 2 -12 -30 18 -20 20 -26 10 -48 -18 -40 -15 -45 22 -30 31 13 35 13 51 -5 26 -29 35 -25 35 14 0 26 6 38 27 52 l27 17 -34 12 c-25 8 -37 20 -45 46 l-12 34 -17 -34z" fill="#ffffff"/>
</g>
</svg>